<svg width="2000" height="460" viewBox="0 0 2000 460" fill="none" xmlns="http://www.w3.org/2000/svg">
<rect x="679" width="318" height="317" fill="#EB2626"/>
<rect x="1477" width="318" height="317" fill="#EB2626"/>
<path d="M817.202 105.977V71H837.801V121.764H871.101V142.348H837.801V232.732C837.801 248.621 844.668 256.514 858.401 256.411C861.808 256.411 865.164 255.998 868.468 255.173C871.875 254.348 874.457 253.625 876.212 253.006L879 251.768V272.352C872.701 275.551 865.525 277.098 857.471 276.995C844.358 276.995 834.084 273.178 826.65 265.542C819.319 257.804 815.653 246.867 815.653 232.732V142.348H787V121.764H804.502C812.969 121.764 817.202 116.502 817.202 105.977Z" fill="white"/>
<path d="M1681.31 139.807L1665.22 155.645C1664.39 154.402 1663.14 152.953 1661.48 151.297C1659.91 149.537 1656.22 147.208 1650.38 144.31C1644.55 141.308 1638.3 139.807 1631.64 139.807C1623.1 139.807 1616.18 142.032 1610.86 146.483C1605.55 150.935 1602.9 156.11 1602.9 162.011C1602.9 168.118 1605.76 173.035 1611.49 176.762C1617.22 180.488 1624.14 183.49 1632.26 185.768C1640.39 187.941 1648.51 190.478 1656.63 193.376C1664.76 196.171 1671.68 200.829 1677.41 207.351C1683.14 213.769 1686 221.998 1686 232.039C1686 245.186 1680.95 256.158 1670.85 264.957C1660.75 273.652 1647.16 278 1630.08 278C1622.79 278 1615.92 277.068 1609.46 275.205C1603.11 273.342 1597.85 271.116 1593.68 268.528C1589.52 265.94 1585.87 263.353 1582.75 260.765C1579.73 258.073 1577.49 255.796 1576.03 253.933L1574 250.982L1590.09 235.145C1590.51 235.766 1591.08 236.594 1591.81 237.629C1592.54 238.561 1594.15 240.32 1596.65 242.908C1599.25 245.393 1602.01 247.67 1604.93 249.74C1607.84 251.707 1611.59 253.467 1616.18 255.02C1620.76 256.572 1625.39 257.349 1630.08 257.349C1640.91 257.349 1649.19 254.968 1654.91 250.206C1660.75 245.444 1663.66 239.389 1663.66 232.039C1663.66 225.725 1660.75 220.601 1654.91 216.667C1649.19 212.63 1642.26 209.473 1634.14 207.195C1626.12 204.814 1618.05 202.227 1609.93 199.432C1601.8 196.533 1594.83 192.03 1589 185.923C1583.27 179.712 1580.4 171.741 1580.4 162.011C1580.4 150.521 1585.25 140.479 1594.93 131.888C1604.72 123.296 1616.96 119 1631.64 119C1637.58 119 1643.36 119.725 1648.98 121.174C1654.71 122.52 1659.39 124.228 1663.04 126.298C1666.68 128.265 1669.91 130.335 1672.72 132.509C1675.64 134.579 1677.72 136.235 1678.97 137.478L1681.31 139.807Z" fill="white"/>
<path d="M34.9549 52V159.858L135.159 52H179.746L93.8344 143.919L186.115 273.905H143.082L69.9097 169.297L34.9549 207.365V273.905H0V52H34.9549Z" fill="black"/>
<path d="M350.491 233.826C359.916 224.025 364.629 212.058 364.629 197.925C364.629 183.688 359.916 171.67 350.491 161.869C341.066 152.069 329.881 147.169 316.935 147.169C303.988 147.169 292.751 152.069 283.223 161.869C273.798 171.67 269.085 183.688 269.085 197.925C269.085 212.058 273.798 224.025 283.223 233.826C292.751 243.627 303.988 248.527 316.935 248.527C329.881 248.527 341.066 243.627 350.491 233.826ZM261.007 253.479C245.264 237.695 237.393 219.177 237.393 197.925C237.393 176.57 245.264 158.001 261.007 142.217C276.853 126.433 295.496 118.541 316.935 118.541C338.374 118.541 356.964 126.433 372.707 142.217C388.553 158.001 396.476 176.57 396.476 197.925C396.476 219.177 388.553 237.695 372.707 253.479C356.964 269.16 338.374 277 316.935 277C295.496 277 276.853 269.16 261.007 253.479Z" fill="black"/>
<path d="M518.557 210.459V273.905H486.709V121.79H518.557V181.986H593.283V121.79H625.13V273.905H593.283V210.459H518.557Z" fill="black"/>
<path d="M1188.07 208.912H1068.75C1070.41 219.641 1075.69 228.926 1084.6 236.766C1093.61 244.607 1104.28 248.527 1116.6 248.527C1125.51 248.527 1133.79 246.515 1141.46 242.492C1149.23 238.468 1154.72 234.548 1157.93 230.731L1162.74 224.851L1183.4 245.432C1182.78 246.257 1181.8 247.444 1180.45 248.991C1179.21 250.435 1176.47 252.963 1172.22 256.574C1167.97 260.081 1163.47 263.228 1158.7 266.013C1153.94 268.695 1147.72 271.223 1140.06 273.596C1132.5 275.865 1124.68 277 1116.6 277C1094.96 277 1076.26 269.108 1060.52 253.324C1044.88 237.437 1037.06 218.403 1037.06 196.223C1037.06 174.868 1044.67 156.608 1059.9 141.443C1075.23 126.175 1093.56 118.541 1114.89 118.541C1136.33 118.541 1154.15 125.659 1168.34 139.895C1182.63 154.029 1189.77 171.773 1189.77 193.128L1188.07 208.912ZM1114.89 145.621C1103.4 145.621 1093.71 149.025 1085.84 155.834C1078.07 162.54 1072.84 171.257 1070.15 181.986H1158.55C1156.68 171.257 1151.87 162.54 1144.1 155.834C1136.33 149.025 1126.6 145.621 1114.89 145.621Z" fill="black"/>
<path d="M1427.16 121.79L1368.28 185.236L1431.82 273.905H1396.86L1347.61 205.817L1323.69 231.195V273.905H1291.84V121.79H1323.69V189.878L1388.94 121.79H1427.16Z" fill="black"/>
<path d="M1841.29 150.263V121.79H1978V150.263H1925.49V273.905H1893.8V150.263H1841.29Z" fill="black"/>
<path d="M697.099 345V391.98C697.306 391.663 697.616 391.215 698.03 390.635C698.496 390.055 699.479 389.001 700.98 387.472C702.532 385.942 704.188 384.624 705.947 383.517C707.706 382.357 710.009 381.329 712.855 380.433C715.7 379.483 718.676 379.009 721.78 379.009C730.99 379.009 738.441 382.041 744.133 388.104C749.877 394.168 752.748 402.209 752.748 412.227V458.416H741.649V412.227C741.649 405.425 739.709 399.968 735.828 395.855C731.948 391.69 726.98 389.607 720.926 389.607C714.148 389.607 708.482 392.032 703.929 396.883C699.376 401.734 697.099 407.93 697.099 415.47V458.416H686V345H697.099Z" fill="#EB2626"/>
<path d="M866.421 423.774L804.407 423.616C804.821 430.629 807.641 436.692 812.867 441.807C818.145 446.921 824.328 449.478 831.417 449.478C836.177 449.478 840.601 448.398 844.689 446.236C848.777 444.074 851.674 441.912 853.382 439.75L856.098 436.587L863.239 443.863C862.928 444.285 862.463 444.891 861.842 445.682C861.273 446.42 859.979 447.712 857.961 449.558C855.995 451.35 853.848 452.958 851.519 454.382C849.242 455.753 846.267 457.045 842.593 458.258C838.971 459.418 835.246 459.998 831.417 459.998C821.017 459.998 812.065 456.069 804.562 448.213C797.06 440.304 793.308 430.734 793.308 419.503C793.308 408.272 797.008 398.729 804.407 390.872C811.858 382.963 820.603 379.009 830.641 379.009C841.041 379.009 849.734 382.7 856.719 390.082C863.705 397.411 867.197 406.691 867.197 417.921L866.421 423.774ZM847.716 396.488C843.007 391.901 837.316 389.607 830.641 389.607C823.966 389.607 818.145 392.006 813.178 396.804C808.21 401.602 805.287 407.297 804.407 413.888H856.098C855.27 406.875 852.476 401.075 847.716 396.488Z" fill="#EB2626"/>
<path d="M929.257 413.888L958.672 408.984C958.672 403.237 956.887 398.571 953.317 394.985C949.747 391.4 945.168 389.607 939.579 389.607C935.543 389.607 931.74 390.556 928.17 392.454C924.651 394.3 922.09 396.198 920.486 398.149L918.08 400.917L910.94 393.641C911.25 393.219 911.664 392.692 912.181 392.059C912.751 391.373 913.941 390.213 915.752 388.579C917.614 386.892 919.555 385.389 921.573 384.071C923.591 382.753 926.23 381.593 929.489 380.591C932.801 379.536 936.164 379.009 939.579 379.009C948.272 379.009 955.464 381.883 961.156 387.63C966.9 393.377 969.771 400.495 969.771 408.984V458.416H958.672V447.897C958.465 448.213 958.129 448.661 957.663 449.241C957.249 449.768 956.266 450.744 954.714 452.168C953.214 453.538 951.584 454.778 949.824 455.885C948.065 456.939 945.737 457.888 942.839 458.732C939.993 459.576 937.044 459.998 933.991 459.998C926.385 459.998 919.969 457.704 914.743 453.117C909.568 448.529 906.981 443.283 906.981 437.378C906.981 430.892 908.896 425.672 912.725 421.718C916.554 417.71 922.064 415.101 929.257 413.888ZM933.991 449.478C941.183 449.478 947.082 447.079 951.687 442.281C956.344 437.483 958.672 431.261 958.672 423.616V418.712L932.439 423.616C922.918 425.461 918.132 430.049 918.08 437.378C918.08 440.858 919.477 443.758 922.271 446.078C925.117 448.345 929.024 449.478 933.991 449.478Z" fill="#EB2626"/>
<path d="M1043.7 372.603V354.728H1054.02V380.67H1070.71V391.189H1054.02V437.378C1054.02 445.498 1057.46 449.531 1064.34 449.478C1066.05 449.478 1067.73 449.268 1069.39 448.846C1071.09 448.424 1072.39 448.055 1073.27 447.739L1074.66 447.106V457.625C1071.51 459.259 1067.91 460.05 1063.88 459.998C1057.3 459.998 1052.16 458.047 1048.43 454.145C1044.76 450.19 1042.92 444.601 1042.92 437.378V391.189H1028.56V380.67H1037.33C1041.58 380.67 1043.7 377.981 1043.7 372.603Z" fill="#EB2626"/>
<path d="M1200.16 423.774L1138.15 423.616C1138.56 430.629 1141.38 436.692 1146.61 441.807C1151.88 446.921 1158.07 449.478 1165.16 449.478C1169.92 449.478 1174.34 448.398 1178.43 446.236C1182.51 444.074 1185.41 441.912 1187.12 439.75L1189.84 436.587L1196.98 443.863C1196.67 444.285 1196.2 444.891 1195.58 445.682C1195.01 446.42 1193.72 447.712 1191.7 449.558C1189.73 451.35 1187.59 452.958 1185.26 454.382C1182.98 455.753 1180.01 457.045 1176.33 458.258C1172.71 459.418 1168.98 459.998 1165.16 459.998C1154.75 459.998 1145.8 456.069 1138.3 448.213C1130.8 440.304 1127.05 430.734 1127.05 419.503C1127.05 408.272 1130.75 398.729 1138.15 390.872C1145.6 382.963 1154.34 379.009 1164.38 379.009C1174.78 379.009 1183.47 382.7 1190.46 390.082C1197.44 397.411 1200.94 406.691 1200.94 417.921L1200.16 423.774ZM1181.45 396.488C1176.75 391.901 1171.05 389.607 1164.38 389.607C1157.7 389.607 1151.88 392.006 1146.92 396.804C1141.95 401.602 1139.03 407.297 1138.15 413.888H1189.84C1189.01 406.875 1186.21 401.075 1181.45 396.488Z" fill="#EB2626"/>
<path d="M1300 379.009V390.398H1295.19C1288.62 390.398 1283 392.718 1278.35 397.358C1273.69 401.998 1271.36 408.035 1271.36 415.47V458.416H1260.26V380.67H1271.36V391.189C1271.57 390.872 1271.88 390.451 1272.29 389.923C1272.71 389.343 1273.69 388.368 1275.24 386.997C1276.79 385.573 1278.45 384.334 1280.21 383.28C1282.02 382.173 1284.4 381.197 1287.35 380.353C1290.35 379.457 1293.51 379.009 1296.82 379.009H1300Z" fill="#EB2626"/>
<path d="M1506.16 372.603V354.728H1516.5V380.67H1533.21V391.189H1516.5V437.378C1516.5 445.498 1519.94 449.531 1526.83 449.478C1528.54 449.478 1530.23 449.268 1531.89 448.846C1533.6 448.424 1534.89 448.055 1535.77 447.739L1537.17 447.106V457.625C1534.01 459.259 1530.41 460.05 1526.37 459.998C1519.79 459.998 1514.63 458.047 1510.9 454.145C1507.22 450.19 1505.38 444.601 1505.38 437.378V391.189H1491V380.67H1499.78C1504.03 380.67 1506.16 377.981 1506.16 372.603Z" fill="#EB2626"/>
<path d="M1648.45 458.416V447.897C1648.24 448.213 1647.93 448.661 1647.52 449.241C1647.1 449.768 1646.12 450.744 1644.56 452.168C1643.06 453.538 1641.43 454.778 1639.67 455.885C1637.9 456.939 1635.57 457.888 1632.67 458.732C1629.82 459.576 1626.87 459.998 1623.81 459.998C1614.9 459.998 1607.49 456.86 1601.58 450.586C1595.72 444.259 1592.8 436.059 1592.8 425.989V380.67H1603.91V425.989C1603.91 432.79 1605.98 438.406 1610.13 442.835C1614.28 447.264 1619.35 449.478 1625.36 449.478C1631.84 449.478 1637.31 447.053 1641.77 442.202C1646.22 437.351 1648.45 431.156 1648.45 423.616V380.67H1659.64V458.416H1648.45Z" fill="#EB2626"/>
<path d="M1752.66 440.541C1758.26 434.53 1761.05 427.544 1761.05 419.582C1761.05 411.568 1758.26 404.581 1752.66 398.623C1747.12 392.612 1740.9 389.607 1734 389.607C1727.42 389.607 1721.52 392.533 1716.28 398.386C1711.1 404.186 1708.51 411.251 1708.51 419.582C1708.51 427.86 1711.1 434.926 1716.28 440.779C1721.52 446.579 1727.42 449.478 1734 449.478C1740.9 449.478 1747.12 446.499 1752.66 440.541ZM1761.05 392.85V345H1772.17V458.416H1761.05V446.236C1760.85 446.552 1760.48 447.053 1759.97 447.739C1759.45 448.371 1758.33 449.478 1756.62 451.06C1754.91 452.642 1753.07 454.066 1751.11 455.331C1749.14 456.544 1746.6 457.625 1743.49 458.574C1740.43 459.523 1737.27 459.998 1734 459.998C1724.26 459.998 1715.71 456.043 1708.35 448.134C1701.05 440.172 1697.39 430.655 1697.39 419.582C1697.39 408.457 1701.05 398.913 1708.35 390.952C1715.71 382.99 1724.26 379.009 1734 379.009C1737.27 379.009 1740.4 379.51 1743.41 380.512C1746.47 381.461 1749.03 382.594 1751.11 383.913C1753.18 385.178 1754.97 386.496 1756.47 387.867C1758.02 389.238 1759.19 390.398 1759.97 391.347L1761.05 392.85Z" fill="#EB2626"/>
<path d="M1843.57 458.416V380.67H1854.68V458.416H1843.57ZM1843.95 359.948C1842.61 358.524 1841.93 356.784 1841.93 354.728C1841.93 352.672 1842.61 350.958 1843.95 349.587C1845.35 348.164 1847.06 347.452 1849.08 347.452C1851.11 347.452 1852.79 348.164 1854.14 349.587C1855.54 350.958 1856.24 352.672 1856.24 354.728C1856.24 356.784 1855.54 358.524 1854.14 359.948C1852.79 361.319 1851.11 362.004 1849.08 362.004C1847.06 362.004 1845.35 361.319 1843.95 359.948Z" fill="#EB2626"/>
<path d="M1980.65 440.858C1986.14 435.058 1988.88 427.966 1988.88 419.582C1988.88 411.146 1986.14 404.054 1980.65 398.307C1975.2 392.507 1968.65 389.607 1960.98 389.607C1953.36 389.607 1946.81 392.507 1941.31 398.307C1935.87 404.054 1933.15 411.12 1933.15 419.503C1933.15 427.834 1935.87 434.926 1941.31 440.779C1946.81 446.579 1953.36 449.478 1960.98 449.478C1968.65 449.478 1975.2 446.605 1980.65 440.858ZM1933.39 448.292C1925.82 440.489 1922.04 430.919 1922.04 419.582C1922.04 408.193 1925.82 398.597 1933.39 390.793C1941 382.937 1950.23 379.009 1961.06 379.009C1971.89 379.009 1981.09 382.937 1988.65 390.793C1996.22 398.597 2000 408.193 2000 419.582C2000 430.919 1996.22 440.489 1988.65 448.292C1981.09 456.096 1971.89 459.998 1961.06 459.998C1950.23 459.998 1941 456.096 1933.39 448.292Z" fill="#EB2626"/>
</svg>
